<svg width="128" height="128" version="1.1" xmlns="http://www.w3.org/2000/svg" desc="Created with imagetracer.js version 1.2.6" ><path fill="rgb(0,0,0)" stroke="rgb(0,0,0)" stroke-width="1" opacity="1" d="M 29.5 48 L 31 50.5 L 29 49.5 L 29.5 48 Z " /><path fill="rgb(0,0,0)" stroke="rgb(0,0,0)" stroke-width="1" opacity="1" d="M 25.5 52 L 26 54.5 L 25 55.5 L 27 57.5 L 26.5 59 L 24 55.5 L 25.5 52 Z " /><path fill="rgb(0,0,0)" stroke="rgb(0,0,0)" stroke-width="1" opacity="1" d="M 60 54 L 62 54 L 62 55.5 L 60.5 59 L 60 54 Z " /><path fill="rgb(0,0,0)" stroke="rgb(0,0,0)" stroke-width="1" opacity="1" d="M 28.5 58 L 31 59 L 35 65.5 L 34 67.5 L 35 69.5 L 34 70.5 L 30.5 96 L 30 88.5 L 31 87.5 L 31 72.5 L 33 69.5 L 33 64.5 L 30 63.5 L 30 61.5 L 28.5 58 Z " /><path fill="rgb(0,0,0)" stroke="rgb(0,0,0)" stroke-width="1" opacity="1" d="M 73.5 64 L 76.5 65 L 78.5 64 L 78.5 65 L 75.5 66 L 73.5 64 Z " /><path fill="rgb(0,0,0)" stroke="rgb(0,0,0)" stroke-width="1" opacity="1" d="M 71.5 65 L 74 66.5 L 71 67 L 71.5 65 Z " /><path fill="rgb(0,0,0)" stroke="rgb(0,0,0)" stroke-width="1" opacity="1" d="M 78.5 71 L 82 72.5 L 80.5 72 L 79 72.5 L 80.5 75 L 77 72.5 L 78.5 71 Z " /><path fill="rgb(0,0,127)" stroke="rgb(0,0,127)" stroke-width="1" opacity="1" d="M 62.5 96 L 62 97.5 L 58.5 103 L 37.5 105 L 32.5 99 L 55.5 98 L 62.5 96 Z " /><path fill="rgb(0,127,0)" stroke="rgb(0,127,0)" stroke-width="1" opacity="1" d="M 0 0 L 128 0 L 128 128 L 0 128 L 0 0 Z M 41 29 L 37 30 L 35 32 L 36 33 L 32 43 L 29 44 L 31 44 L 32 46 L 32 45 L 33 45 L 32 47 L 32 49 L 31 49 L 29 49 L 31 52 L 31 53 L 30 53 L 30 55 L 29 60 L 33 65 L 33 70 L 31 73 L 31 88 L 30 89 L 30 96 L 31 97 L 31 103 L 33 103 L 33 105 L 37 107 L 46 108 L 48 106 L 49 107 L 53 107 L 55 105 L 60 105 L 62 104 L 65 99 L 64 90 L 62 86 L 62 81 L 60 79 L 63 76 L 64 77 L 68 76 L 70 74 L 71 75 L 75 72 L 78 73 L 83 70 L 92 81 L 93 81 L 93 84 L 95 84 L 94 83 L 104 80 L 106 77 L 106 75 L 108 75 L 110 70 L 113 68 L 114 63 L 113 57 L 108 48 L 103 43 L 98 44 L 93 43 L 90 50 L 88 53 L 85 56 L 86 57 L 83 60 L 81 65 L 79 66 L 77 65 L 75 66 L 72 65 L 71 68 L 69 67 L 67 69 L 66 68 L 58 70 L 56 64 L 60 57 L 61 59 L 62 58 L 61 57 L 62 54 L 59 53 L 59 50 L 61 50 L 58 47 L 59 45 L 56 43 L 53 35 L 53 33 L 51 33 L 50 31 L 50 29 L 41 29 Z M 26 52 L 25 55 L 26 55 L 26 52 Z M 69 52 L 70 54 L 71 54 L 69 52 Z M 36 110 L 35 112 L 37 112 L 36 110 Z " /><path fill="rgb(0,127,127)" stroke="rgb(0,127,127)" stroke-width="1" opacity="1" d="M 29.5 43 L 32 43.5 L 29.5 44 L 29.5 43 Z " /><path fill="rgb(0,127,127)" stroke="rgb(0,127,127)" stroke-width="1" opacity="1" d="M 56 43 L 59 44.5 L 58 46.5 L 60.5 50 L 58.5 51 L 56 43 Z " /><path fill="rgb(0,127,127)" stroke="rgb(0,127,127)" stroke-width="1" opacity="1" d="M 93 43 L 97.5 44 L 102.5 43 L 108 47.5 L 113 56.5 L 114 62.5 L 113 68 L 111 67.5 L 113 60.5 L 104.5 45 L 94.5 45 L 94 46.5 L 81.5 65 L 81 63.5 L 86 56.5 L 85 55.5 L 88 52.5 L 90 49.5 L 93 43 Z " /><path fill="rgb(0,127,127)" stroke="rgb(0,127,127)" stroke-width="1" opacity="1" d="M 68.5 52 L 72 54.5 L 70.5 54 L 68.5 52 Z " /><path fill="rgb(0,127,127)" stroke="rgb(0,127,127)" stroke-width="1" opacity="1" d="M 77.5 58 L 79.5 61 L 77.5 58 Z " /><path fill="rgb(0,127,127)" stroke="rgb(0,127,127)" stroke-width="1" opacity="1" d="M 32.5 61 L 33.5 63 L 32.5 61 Z " /><path fill="rgb(0,127,127)" stroke="rgb(0,127,127)" stroke-width="1" opacity="1" d="M 57.5 61 L 56.5 63 L 57.5 61 Z " /><path fill="rgb(0,127,127)" stroke="rgb(0,127,127)" stroke-width="1" opacity="1" d="M 63.5 68 L 66 68.5 L 60.5 70 L 60.5 69 L 63.5 68 Z " /><path fill="rgb(0,127,127)" stroke="rgb(0,127,127)" stroke-width="1" opacity="1" d="M 109.5 70 L 110 71.5 L 108 75 L 106 75 L 106 76.5 L 103.5 80 L 103 78.5 L 109.5 70 Z " /><path fill="rgb(0,127,127)" stroke="rgb(0,127,127)" stroke-width="1" opacity="1" d="M 83.5 71 L 93.5 81 L 98.5 81 L 101.5 80 L 101.5 81 L 94 82.5 L 94.5 84 L 93 84 L 93 81 L 91.5 81 L 83.5 71 Z " /><path fill="rgb(0,127,127)" stroke="rgb(0,127,127)" stroke-width="1" opacity="1" d="M 73.5 72 L 71.5 75 L 70 74.5 L 73.5 72 Z " /><path fill="rgb(0,127,127)" stroke="rgb(0,127,127)" stroke-width="1" opacity="1" d="M 67.5 74 L 69 74.5 L 63 77 L 63 75 L 66.5 75 L 67.5 74 Z " /><path fill="rgb(0,127,127)" stroke="rgb(0,127,127)" stroke-width="1" opacity="1" d="M 64.5 95 L 65 98.5 L 62 104 L 59.5 105 L 54.5 105 L 52.5 107 L 48.5 107 L 47.5 106 L 45.5 108 L 36.5 107 L 33 104.5 L 33 103 L 31 103 L 31 99.5 L 37.5 105 L 58.5 103 L 60 101.5 L 62 97 L 64 97 L 64.5 95 Z " /><path fill="rgb(0,127,127)" stroke="rgb(0,127,127)" stroke-width="1" opacity="1" d="M 35.5 110 L 36.5 112 L 35 112 L 35.5 110 Z " /><path fill="rgb(127,0,0)" stroke="rgb(127,0,0)" stroke-width="1" opacity="1" d="M 40.5 30 L 46.5 30 L 52 33.5 L 51 36.5 L 54 41.5 L 52.5 42 L 49.5 40 L 46.5 41 L 39 42 L 38 44.5 L 42 46.5 L 37.5 47 L 33 44.5 L 35 34.5 L 37.5 31 L 40.5 30 Z M 47 32 L 47 34 L 49 33 L 47 32 Z M 50 34 L 51 36 L 51 34 L 50 34 Z " /><path fill="rgb(127,0,0)" stroke="rgb(127,0,0)" stroke-width="1" opacity="1" d="M 54.5 64 L 56 64 L 56 65.5 L 56 67.5 L 57 73.5 L 60 77.5 L 63 95 L 32.5 98 L 31 96.5 L 31 91.5 L 35 68.5 L 34 66.5 L 35.5 65 L 36.5 66 L 40.5 65 L 53.5 65 L 54.5 64 Z " /><path fill="rgb(127,0,127)" stroke="rgb(127,0,127)" stroke-width="1" opacity="1" d="M 55.5 95 L 63 95.5 L 61.5 97 L 56.5 97 L 55.5 98 L 32.5 99 L 32.5 98 L 43.5 97 L 44.5 96 L 54.5 96 L 55.5 95 Z " /><path fill="rgb(127,127,0)" stroke="rgb(127,127,0)" stroke-width="1" opacity="1" d="M 40.5 29 L 49.5 29 L 50 30.5 L 50.5 32 L 46.5 30 L 40.5 30 L 35.5 32 L 36.5 30 L 40.5 29 Z " /><path fill="rgb(127,127,0)" stroke="rgb(127,127,0)" stroke-width="1" opacity="1" d="M 47 32 L 49 32.5 L 47 33.5 L 47 32 Z " /><path fill="rgb(127,127,0)" stroke="rgb(127,127,0)" stroke-width="1" opacity="1" d="M 52.5 33 L 56 40.5 L 55.5 43 L 53.5 44 L 51.5 44 L 49.5 45 L 43 44 L 43 46 L 41.5 46 L 38 44.5 L 39 42 L 47.5 40 L 50.5 41 L 53.5 42 L 52 39.5 L 52 37.5 L 49 34.5 L 51 34 L 51.5 36 L 52.5 33 Z " /><path fill="rgb(127,127,0)" stroke="rgb(127,127,0)" stroke-width="1" opacity="1" d="M 34.5 35 L 35 37.5 L 32.5 44 L 32 40.5 L 34.5 35 Z " /><path fill="rgb(127,127,0)" stroke="rgb(127,127,0)" stroke-width="1" opacity="1" d="M 56 67 L 58 67 L 58 70.5 L 57 70.5 L 56 67 Z " /><path fill="rgb(127,127,0)" stroke="rgb(127,127,0)" stroke-width="1" opacity="1" d="M 60.5 79 L 62 80.5 L 63 87.5 L 61 86.5 L 60.5 79 Z " /><path fill="rgb(127,127,0)" stroke="rgb(127,127,0)" stroke-width="1" opacity="1" d="M 62 89 L 64 89 L 64 91 L 62 91 L 62 89 Z " /><path fill="rgb(127,127,127)" stroke="rgb(127,127,127)" stroke-width="1" opacity="1" d="M 54.5 43 L 56 43 L 56 45.5 L 58 47.5 L 60 55.5 L 56 64 L 46.5 65 L 44.5 64 L 36.5 66 L 31 59.5 L 30 54.5 L 33.5 45 L 37.5 47 L 41.5 47 L 43 44 L 49.5 45 L 54.5 43 Z M 49 56 L 49 60 L 51 59 L 53 61 L 53 58 L 49 56 Z " /><path fill="rgb(127,127,127)" stroke="rgb(127,127,127)" stroke-width="1" opacity="1" d="M 94 45 L 104.5 45 L 106 46.5 L 112 57.5 L 113 62.5 L 111 68.5 L 103 80 L 93.5 81 L 81.5 70 L 61 76 L 60.5 78 L 60 76 L 58 76 L 58 73.5 L 57 71.5 L 58.5 70 L 78.5 66 L 83 63.5 L 94 45 Z M 100 47 L 100 49 L 100 51 L 96 56 L 97 62 L 101 59 L 101 54 L 103 53 L 105 50 L 100 47 Z M 105 54 L 105 57 L 105 59 L 102 63 L 100 65 L 102 66 L 104 66 L 104 64 L 106 64 L 106 60 L 108 60 L 108 56 L 105 54 Z M 86 64 L 83 67 L 85 68 L 87 68 L 86 64 Z M 73 68 L 71 71 L 78 69 L 73 68 Z " /><path fill="rgb(127,127,127)" stroke="rgb(127,127,127)" stroke-width="1" opacity="1" d="M 63.5 91 L 64 96.5 L 63 96.5 L 63.5 91 Z " /><path fill="rgb(127,127,254)" stroke="rgb(127,127,254)" stroke-width="1" opacity="1" d="M 99.5 47 L 105 49.5 L 102.5 53 L 101 53.5 L 101 58.5 L 97 61.5 L 96 55.5 L 100 50.5 L 100 48.5 L 99.5 47 Z " /><path fill="rgb(127,127,254)" stroke="rgb(127,127,254)" stroke-width="1" opacity="1" d="M 105 54 L 108 55.5 L 108 59.5 L 106 60 L 106 63.5 L 104 63.5 L 104 66 L 101.5 66 L 100 64.5 L 102 62.5 L 105 58.5 L 105 56.5 L 105 54 Z " /><path fill="rgb(127,127,254)" stroke="rgb(127,127,254)" stroke-width="1" opacity="1" d="M 48.5 56 L 50.5 57 L 52 56.5 L 51.5 58 L 53 58 L 53 60.5 L 51.5 63 L 51 61.5 L 52 60.5 L 50.5 59 L 49 59.5 L 48.5 56 Z " /><path fill="rgb(127,127,254)" stroke="rgb(127,127,254)" stroke-width="1" opacity="1" d="M 85.5 64 L 87 67.5 L 84.5 68 L 83 66.5 L 85.5 64 Z " /><path fill="rgb(127,127,254)" stroke="rgb(127,127,254)" stroke-width="1" opacity="1" d="M 78.5 67 L 80 67.5 L 70.5 71 L 72.5 68 L 77.5 68 L 78.5 67 Z " /></svg>